# xmcd
#
# Track frame offsets:
#	150
#	22190
#	38507
#	56539
#	74127
#	92700
#	110300
#	124087
#	139757
#	153832
#	171254
#	187794
#	205052
#	228344
#	249507
#	281152
#
# Disc length: 3761 seconds
#
# Revision: 1
# Processed by: cddbd v1.5.2PL0 Copyright (c) Steve Scherf et al.
# Submitted via: audiograbber 1.83.01
#
DISCID=dd0eaf10
DTITLE=Various Artist - SC8759
DYEAR=1900
DGENRE=Country
TTITLE0=Marina McBride 1 Where would you be
TTITLE1=Leslie Satcher 2 The slow way home
TTITLE2=George Jones 3 50,000 Names
TTITLE3=Blake Shelton 4 Ol' red
TTITLE4=Brett James 5 Chasin' amy
TTITLE5=Darryl Worley 6 I miss my friend
TTITLE6=Little big town 7 Don't waste my time
TTITLE7=Kasey Chambers 8 Not pretty enough [radio]
TTITLE8=Mary-Chapin Carpenter 9 My dear old friend
TTITLE9=jamie O'Neal and Michael McDonald 10 Not so distant day
TTITLE10=Tammy Cochran 11 I believe
TTITLE11=Montgomery Gentry 12 Didn't I
TTITLE12=Johnny Cash and Dave Matthews 13 For you
TTITLE13=Rascal Flatts 14 The glory of life
TTITLE14=Carolyn Dawn Johnson 15 Some mother's son
TTITLE15=Data Track
EXTD=
EXTT0=
EXTT1=
EXTT2=
EXTT3=
EXTT4=
EXTT5=
EXTT6=
EXTT7=
EXTT8=
EXTT9=
EXTT10=
EXTT11=
EXTT12=
EXTT13=
EXTT14=
EXTT15=
PLAYORDER=
